<?xml version="1.0" standalone="no"?>
<!DOCTYPE svg PUBLIC "-//W3C//DTD SVG 20010904//EN"
 "http://www.w3.org/TR/2001/REC-SVG-20010904/DTD/svg10.dtd">
<svg version="1.0" xmlns="http://www.w3.org/2000/svg"
 width="512.000000pt" height="512.000000pt" viewBox="0 0 512.000000 512.000000"
 preserveAspectRatio="xMidYMid meet">
<metadata>
Created by potrace 1.14, written by Peter Selinger 2001-2017
</metadata>
<g transform="translate(0.000000,512.000000) scale(0.100000,-0.100000)"
fill="#000000" stroke="none">
<path d="M514 5091 c-225 -36 -402 -193 -471 -417 -17 -56 -18 -149 -18 -2114
0 -1965 1 -2058 18 -2114 62 -199 204 -341 403 -403 57 -17 144 -18 2114 -15
1783 3 2063 6 2115 19 182 45 352 216 399 399 14 55 16 279 16 2114 0 1835 -2
2059 -16 2114 -47 183 -217 354 -399 400 -52 13 -329 15 -2085 20 -1114 3
-2048 1 -2076 -3z m2205 -293 c190 -1241 300 -2154 289 -2397 -3 -67 -6 -76
-30 -94 -40 -30 -171 -34 -318 -11 -63 10 -137 18 -165 18 l-50 1 -6 -120 c-4
-66 -7 -240 -8 -387 l-1 -266 -67 15 c-106 23 -230 88 -463 243 -336 223 -429
259 -498 190 -51 -50 -57 -85 -57 -300 1 -214 11 -290 67 -485 42 -147 97
-281 152 -368 50 -82 171 -204 263 -265 144 -97 347 -178 511 -203 l82 -12 0
-124 0 -123 -934 0 c-593 0 -953 4 -987 10 -183 35 -344 196 -379 379 -14 74
-14 4048 0 4122 34 179 196 344 371 378 24 5 528 9 1119 10 l1076 1 33 -212z
m1897 201 c185 -34 349 -198 383 -383 15 -84 15 -4028 0 -4112 -34 -185 -198
-349 -383 -383 -41 -8 -389 -11 -1088 -11 l-1028 0 0 79 c0 43 3 99 6 125 l7
46 46 0 c191 0 547 212 733 437 194 234 275 414 394 870 30 118 64 234 75 259
10 25 19 56 19 69 0 47 -105 104 -165 89 -35 -9 -90 -64 -220 -223 -135 -163
-129 -157 -190 -207 -66 -54 -120 -81 -213 -105 -89 -23 -282 -35 -395 -25
l-77 8 0 350 c0 315 2 350 16 344 9 -3 70 -13 137 -22 264 -35 404 9 423 133
9 59 -18 452 -51 747 -46 400 -146 1123 -238 1714 l-33 212 891 0 c600 0 911
-4 951 -11z m-3032 -3101 c33 -17 141 -84 240 -151 303 -202 387 -245 539
-277 291 -61 611 -44 784 40 38 19 95 62 144 108 l82 77 -6 -125 c-10 -202
-56 -354 -117 -385 -64 -33 -809 -36 -1140 -5 -136 13 -341 45 -425 66 -74 19
-187 60 -207 77 -39 30 -73 412 -49 529 21 97 40 103 155 46z m746 -1113 c120
-23 315 -90 372 -126 76 -49 102 -123 56 -153 -54 -34 -158 -56 -268 -56 -265
0 -534 105 -729 286 l-64 59 59 7 c108 11 482 1 574 -17z"/>
<path d="M1620 4244 c-197 -45 -411 -204 -535 -398 -86 -135 -152 -313 -181
-485 -21 -130 -15 -343 15 -472 68 -300 250 -551 478 -660 102 -48 151 -60
279 -66 111 -5 129 -3 215 21 341 98 595 412 680 841 9 45 14 132 13 240 -1
188 -18 288 -76 435 -104 263 -298 458 -530 532 -85 26 -269 33 -358 12z m321
-90 c253 -75 447 -300 529 -610 96 -368 -7 -797 -255 -1062 -353 -379 -874
-300 -1118 168 -129 247 -157 534 -81 828 77 297 281 553 517 649 129 53 286
63 408 27z"/>
<path d="M1945 3226 c-153 -72 -192 -257 -81 -383 52 -59 104 -83 181 -83 77
0 129 24 181 83 111 126 72 311 -81 383 -32 15 -68 24 -100 24 -32 0 -68 -9
-100 -24z m93 -27 c77 -27 87 -141 16 -179 -28 -16 -75 -16 -103 0 -53 28 -63
116 -18 157 37 34 58 38 105 22z"/>
<path d="M4225 3675 c-338 -61 -655 -240 -922 -518 -83 -87 -98 -118 -71 -145
23 -23 46 -12 98 45 285 312 666 517 1000 539 136 8 149 12 156 40 11 44 -9
54 -105 53 -47 0 -117 -7 -156 -14z"/>
<path d="M3890 3135 c-84 -18 -181 -51 -420 -142 -246 -93 -268 -102 -274
-120 -7 -18 9 -49 29 -57 9 -3 94 24 188 60 369 142 508 184 607 184 59 0 174
-25 318 -71 158 -50 260 -60 329 -34 53 20 221 113 229 127 3 5 3 20 0 33 -10
40 -40 40 -114 -1 -184 -103 -200 -105 -415 -40 -253 78 -343 89 -477 61z"/>
<path d="M3485 2814 c-206 -28 -278 -63 -237 -114 l18 -23 90 21 c281 66 566
55 804 -29 63 -23 131 -42 150 -43 33 -1 35 0 35 33 0 34 -2 36 -79 69 -90 39
-227 76 -340 91 -104 15 -318 12 -441 -5z"/>
</g>
</svg>
