<?xml version="1.0" standalone="no"?>
<!DOCTYPE svg PUBLIC "-//W3C//DTD SVG 20010904//EN"
 "http://www.w3.org/TR/2001/REC-SVG-20010904/DTD/svg10.dtd">
<svg version="1.0" xmlns="http://www.w3.org/2000/svg"
 width="256.000000pt" height="256.000000pt" viewBox="0 0 256.000000 256.000000"
 preserveAspectRatio="xMidYMid meet">
<metadata>
Created by potrace 1.11, written by Peter Selinger 2001-2013
</metadata>
<g transform="translate(0.000000,256.000000) scale(0.100000,-0.100000)"
fill="#000000" stroke="none">
<path d="M1196 2540 c-424 -4 -856 -11 -960 -15 l-191 -7 -1 -906 c-1 -499 -6
-1058 -10 -1242 -5 -184 -8 -337 -6 -340 8 -11 466 -11 1124 -1 643 11 1338
28 1344 34 9 9 42 1497 46 2082 l3 400 -290 1 c-159 0 -636 -3 -1059 -6z m310
-97 l931 -6 7 -521 c4 -287 11 -687 16 -891 5 -203 12 -500 16 -659 l7 -289
-259 7 c-722 19 -1115 26 -1590 26 l-521 0 -7 172 c-10 285 -19 1892 -11 2042
l7 139 237 -6 c130 -4 655 -10 1167 -14z"/>
<path d="M152 1292 c1 -616 5 -1122 8 -1125 3 -3 511 -7 1129 -9 l1124 -3 -6
890 c-4 489 -10 992 -14 1116 l-6 226 -246 6 c-135 4 -639 10 -1119 14 l-874
6 4 -1121z m2225 1041 c-4 -27 -10 -517 -13 -1089 l-7 -1042 -611 -7 c-667 -7
-1530 -4 -1541 7 -4 3 -3 488 1 1076 l7 1070 616 7 c613 7 1455 20 1520 23
l34 2 -6 -47z"/>
<path d="M1020 1286 l0 -944 -37 10 c-115 32 -229 121 -278 218 -46 91 -55
160 -55 448 l0 262 -196 0 -195 0 3 -292 3 -293 27 -55 c52 -106 165 -189 326
-240 175 -56 245 -64 597 -65 l320 0 3 469 2 468 33 -6 c58 -11 157 -67 207
-116 59 -60 106 -153 120 -240 5 -36 10 -181 10 -323 l0 -257 193 2 192 3 3
269 c2 223 0 279 -14 325 -50 174 -229 285 -539 336 -49 8 -116 15 -147 15
l-58 0 -2 473 -3 472 -257 3 -258 2 0 -944z"/>
</g>
</svg>
